<svg xmlns="http://www.w3.org/2000/svg" width="972.004" height="639.896" xmlns:v="https://vecta.io/nano"><path d="M634.374 279.406q-1.68 8.835-4.03 17.49l-.55 2h-21.79a7.01 7.01 0 0 0-7 7v62.12l-2 3.67c-3.46 6.3-7.06 12.53-10.74 18.68-60.007 99.956-143.7 183.601-243.69 243.55l5.92-13.36-6.52-.45c-47.25-3.23-94.66-6.81-140.8-17.43-48.27-11.11-95.49-30.38-133.32-62.33-37.84-31.96-65.58-77.6-69.43-126.98-1.284-16.971.433-34.035 5.07-50.41 8.87-31.52 28.25-59.88 56.21-76.66 43.92-26.35 101.21-20.98 147.51.94 46.29 21.91 83.97 58.18 120.76 93.82a466.42 466.42 0 0 0-150.91-157.52c-20.56-13.16-42.38-24.88-59.86-41.93-17.47-17.04-30.36-40.93-27.27-65.14 3.51-27.46 26-48.3 48.53-64.37 9-6.42 18.29-12.51 27.87-18.11 27.03-15.84 56.27-27.79 87.15-32.22 41.83-6.01 87.01 3.11 119.08 30.63 36.13 31.01 50.95 81.02 49.54 128.86 22.26-32.36 56.59-57.13 95.36-58.18 40.25-1.08 78.51 24.35 98.67 59.21 20.15 34.85 23.77 77.57 16.24 117.12z" fill="#e6e6e6"/><g fill="#fff"><path d="M379.716 413.801c23.575-2.076 45.352-4.502 68.196-10.966 22.143-6.266 43.451-16.755 59.215-33.882 16.955-18.422 26.107-42.345 32.564-66.161 3.6-13.278 6.559-26.742 9.35-40.21q4.543-21.92 8.073-44.033 7.027-44.018 10.033-88.554.363-5.406.666-10.816c.125-2.225-3.335-2.218-3.46 0q-2.47 43.9-8.885 87.457c-4.221 28.53-9.621 56.937-16.472 84.955-5.804 23.736-13.32 47.843-28.206 67.603-13.96 18.529-34.122 30.638-55.892 37.877-22.153 7.367-45.51 10.308-68.659 12.495-2.84.268-3.681.524-6.522.774-2.201.194-2.221 3.656 0 3.46zM7.491 365.508a375.04 375.04 0 0 1 87.701 15.454 379.01 379.01 0 0 1 81.676 35.552c24.865 14.525 47.948 31.905 68.78 51.786a378.86 378.86 0 0 1 53.727 64.062 375.1 375.1 0 0 1 38.446 74.533q1.827 4.811 3.52 9.67c.729 2.089 4.073 1.19 3.336-.92a378.55 378.55 0 0 0-36.729-76.387 383.57 383.57 0 0 0-52.7-66.391 373.96 373.96 0 0 0-67.28-53.692 381.92 381.92 0 0 0-169.574-56.376q-5.446-.456-10.903-.751c-2.225-.122-2.218 3.339 0 3.46z"/><path d="M169.269 38.042a203.8 203.8 0 0 1 53.501 26.144c16.817 11.612 32.154 25.233 45.672 40.56a336.25 336.25 0 0 1 37.82 52.121 444.66 444.66 0 0 1 30.07 61.135c8.696 21.68 16.01 43.89 21.898 66.495 5.985 22.873 10.66 46.069 14.003 69.475a620.23 620.23 0 0 1 6.027 69.869 553.49 553.49 0 0 1-1.979 67.025c-1.842 20.787-5.205 41.411-10.063 61.706a291.56 291.56 0 0 1-18.155 53.357q-2.697 5.841-5.722 11.521c-1.047 1.965 1.939 3.715 2.988 1.746 8.576-16.388 15.424-33.624 20.434-51.429 5.62-19.821 9.695-40.048 12.186-60.499 2.761-22.188 4.106-44.53 4.026-66.889-.05-23.49-1.448-46.958-4.188-70.288-2.741-23.621-6.811-47.069-12.19-70.232-5.366-23.201-12.173-46.045-20.381-68.399a475.91 475.91 0 0 0-28.342-62.945c-10.437-19.341-22.6-37.699-36.341-54.851-13.05-16.331-27.948-31.095-44.396-43.996-15.861-12.403-33.388-22.513-52.065-30.033q-6.846-2.725-13.882-4.929c-2.129-.67-3.04 2.669-.92 3.336z"/></g><ellipse cx="374.504" cy="629.896" rx="247.5" ry="10" fill="#e6e6e6"/><path d="M593.173 316.685c-.123.54-.203 1.088-.239 1.64l-42.957 24.782-10.441-6.011-11.131 14.572 22.337 15.921 49.008-38.663c4.093 1.514 8.695.339 11.56-2.953s3.394-8.013 1.329-11.857-6.293-6.01-10.62-5.439-7.848 3.759-8.845 8.008z" fill="#ffb8b8"/><path d="M495.34 331.889l33.824 24.107 15.128-18.967-32.88-26.383c-2.859-2.294-6.537-3.309-10.167-2.806s-6.894 2.48-9.021 5.465h0c-4.271 5.992-2.875 14.313 3.117 18.584z" fill="#1999ce"/><path fill="#ffb8b8" d="M425.519 606.957l11.86 3.107 17.63-44.264-17.503-4.587-11.987 45.744z"/><path d="M457.365 627.07l-37.272-9.766h0l3.773-14.401h0l22.872 5.993a14.89 14.89 0 0 1 10.627 18.174h0 0z" fill="#2f2e41"/><path fill="#ffb8b8" d="M530.942 615.401l12.069-2.156-2.572-47.577-17.812 3.182 8.315 46.551z"/><path d="M568.288 620.294l-37.93 6.775h0l-2.618-14.655h0l23.275-4.158a14.89 14.89 0 0 1 11.129 2.441c3.239 2.257 5.449 5.709 6.143 9.596h0 0zm-61.111-354.786c2.974.724 5.393 3.754 6.846 7.265a50.66 50.66 0 0 1 2.704 11.414c1.142 7.257 2.238 15.113-.123 21.834-2.768 7.877-10.142 12.003-16.539 10.064s-11.484-9.217-13.223-17.594a42.61 42.61 0 0 1 2.924-25.084c1.817-4.137 4.322-7.954 7.65-9.82a7.55 7.55 0 0 1 10.068 2.098m16.52 131.211l22.977 205.794-18.977 7.206-35-138-48.728 126.178-20.772 1.154s28.5-196.332 49.622-200.794z" fill="#2f2e41"/><circle cx="504.705" cy="267.211" r="24.561" fill="#ffb8b8"/><path d="M515.246 302.076l-26.542-3.462s-17.31 20.772-16.156 56.545-2.885 46.737-2.885 46.737l55.34 1c-8-11 25.461-74.177-9.758-100.82z" fill="#1999ce"/><path d="M529.504 407.896c-.553.004-1.106.052-1.651.142l-33.955-36.146 3.462-11.54-16.733-7.501-10.386 25.388 48.852 38.859c-.538 4.331 1.66 8.542 5.52 10.577s8.577 1.47 11.846-1.42 4.41-7.502 2.864-11.582-5.456-6.779-9.819-6.778z" fill="#ffb8b8"/><path d="M492.315 316.139l-15.727 38.443 21.926 10.386 18.158-38.045c1.579-3.308 1.725-7.12.404-10.54s-3.992-6.144-7.384-7.531h0c-3.271-1.338-6.939-1.322-10.198.045s-5.841 3.972-7.179 7.243z" fill="#1999ce"/><path d="M498.28 289.54c3.848-2.22 4.259-7.576 3.736-11.988s-1.397-9.331 1.197-12.938c3.095-4.306 9.314-4.391 14.615-4.532s11.756-1.693 13.129-6.814c.908-3.384-1.034-7.016-3.82-9.14s-6.272-3.063-9.66-3.956c-7.579-1.997-15.406-4.01-23.166-2.913a29.54 29.54 0 0 0-25.163 32.98c1.256 9.851 3.078 14.153 1.882 18.496-2.227 8.09-11.831 13.288-12.022 21.677-.15 6.562 5.647 11.624 11.302 14.956 4.486 2.643 9.327 4.885 14.496 5.504s10.735-.566 14.586-4.07c4.967-4.519 6.195-12.069 4.771-18.631s-5.077-12.39-8.691-18.049" fill="#2f2e41"/><path d="M963.004 296.896h-355c-4.967.007-8.993 4.033-9 9v228c.007 4.967 4.033 8.993 9 9h355c4.967-.007 8.993-4.033 9-9v-228c-.007-4.967-4.033-8.993-9-9zm7 237a7.01 7.01 0 0 1-7 7h-355a7.01 7.01 0 0 1-7-7v-228a7.01 7.01 0 0 1 7-7h355a7.01 7.01 0 0 1 7 7z" fill="#3f3d56"/><path d="M683.779 410.391h-56a8.51 8.51 0 0 1-8.5-8.5v-56a8.51 8.51 0 0 1 8.5-8.5h56a8.51 8.51 0 0 1 8.5 8.5v56a8.51 8.51 0 0 1-8.5 8.5z" fill="#1999ce"/><path d="M944.515 469.901h-318a6.5 6.5 0 1 1 0-13h318a6.5 6.5 0 1 1 0 13zm.214-31.5h-318a6.5 6.5 0 1 1 0-13h318a6.5 6.5 0 1 1 0 13zm-157-43.01h-47a6.5 6.5 0 1 1 0-13h47a6.5 6.5 0 1 1 0 13zm157-31.99h-204a6.5 6.5 0 1 1 0-13h204a6.5 6.5 0 1 1 0 13zm-165 138.5H626.515a6.5 6.5 0 1 1 0-13h153.213a6.5 6.5 0 1 1 0 13z" fill="#ccc"/></svg>